<!--
  Canvas Extractor Tools app icon.

  The white mark is the same Canvas dot ring the app draws on its content-export tile
  (src/components/ToolPanel.tsx, CanvasIcon) — eight inward-bulging petals at radius 36
  alternating with eight dots at radius 22, in a 100-unit box centred on (50,50).

  This file is the design source of truth. The packaged Windows icon (icon.ico) is
  rasterised from these same shapes by make-icon.py — if you change the geometry here,
  re-run that script and keep its constants in sync.
-->
<svg xmlns="http://www.w3.org/2000/svg" width="256" height="256" viewBox="0 0 64 64">
  <title>Canvas Extractor Tools</title>

  <!-- Tile -->
  <rect width="64" height="64" rx="11" fill="#C8102E"/>

  <!-- Canvas dot ring, scaled from its native 100-unit box into the upper half of the tile -->
  <g fill="#fff" transform="translate(8.5,-4) scale(0.47)">
    <path d="M 38 14 A 12 12 0 0 0 62 14 Z"/>
    <path d="M 38 14 A 12 12 0 0 0 62 14 Z" transform="rotate(45,50,50)"/>
    <path d="M 38 14 A 12 12 0 0 0 62 14 Z" transform="rotate(90,50,50)"/>
    <path d="M 38 14 A 12 12 0 0 0 62 14 Z" transform="rotate(135,50,50)"/>
    <path d="M 38 14 A 12 12 0 0 0 62 14 Z" transform="rotate(180,50,50)"/>
    <path d="M 38 14 A 12 12 0 0 0 62 14 Z" transform="rotate(225,50,50)"/>
    <path d="M 38 14 A 12 12 0 0 0 62 14 Z" transform="rotate(270,50,50)"/>
    <path d="M 38 14 A 12 12 0 0 0 62 14 Z" transform="rotate(315,50,50)"/>
    <circle cx="50" cy="28" r="5" transform="rotate(22.5,50,50)"/>
    <circle cx="50" cy="28" r="5" transform="rotate(67.5,50,50)"/>
    <circle cx="50" cy="28" r="5" transform="rotate(112.5,50,50)"/>
    <circle cx="50" cy="28" r="5" transform="rotate(157.5,50,50)"/>
    <circle cx="50" cy="28" r="5" transform="rotate(202.5,50,50)"/>
    <circle cx="50" cy="28" r="5" transform="rotate(247.5,50,50)"/>
    <circle cx="50" cy="28" r="5" transform="rotate(292.5,50,50)"/>
    <circle cx="50" cy="28" r="5" transform="rotate(337.5,50,50)"/>
  </g>

  <!-- Download arrow: solid shaft, solid head, and the bar it lands on -->
  <g fill="#fff">
    <rect x="29.6" y="41.5" width="4.8" height="8.2" rx="0.6"/>
    <path d="M25.2 48.6h13.6L32 56.4z"/>
    <rect x="23" y="58" width="18" height="3.4" rx="1.5"/>
  </g>
</svg>
